# xmcd
# 
# Track frame offsets:
#     150
#     24670
#     41832
#     62776
#     80868
#     91020
#     110967
#     122694
#     141361
#     159968
#     173230
# 
# Disc length: 2536
# 
# Revision: 0
# Processed by: cddbd v1.5.2PL0 Copyright (c) Steve Scherf et al.
# Submitted via: BonkEnc v1.0.8
# 
DISCID=9809e60b
DTITLE=Alain Souchon - C'est déjà ca
DYEAR=1993
DGENRE=Chanson
TTITLE0=Foule sentimentale
TTITLE1=L'amour à la machine
TTITLE2=Sous les jupes des filles
TTITLE3=Les regrets
TTITLE4=Les filles - lectriques
TTITLE5=Arlette Laguiller
TTITLE6=Chanter c'est lancer des balles
TTITLE7=Sans queue ni tete
TTITLE8=Le fil
TTITLE9=Le zébre
TTITLE10=C'est déjà ca
EXTD=YEAR: 1993
EXTT0=
EXTT1=
EXTT2=
EXTT3=
EXTT4=
EXTT5=
EXTT6=
EXTT7=
EXTT8=
EXTT9=
EXTT10=
PLAYORDER=
